<?xml version="1.0" encoding="UTF-8"?><svg id="Capa_2" xmlns="http://www.w3.org/2000/svg" viewBox="0 0 328.18 149.62"><defs><style>.cls-1{fill:#008d36;}.cls-2{fill:#1d1d1b;}</style></defs><g id="Capa_1-2"><g><g><path class="cls-1" d="M12.99,89.14c.12,1.02,.42,1.62,1.14,1.62s1.08-.42,1.5-1.56l11.04-29.58c1.92-5.16,4.08-8.58,9.06-8.58s6.3,3.72,6.72,8.7l2.64,29.34c.12,1.2,.36,1.68,1.14,1.68,.66,0,1.02-.48,1.5-1.62l15.54-37.32h7.14l-15.9,37.8c-2.16,5.1-4.5,7.98-9.3,7.98-5.34,0-6.66-3.18-7.08-8.04l-2.52-29.88c-.06-1.08-.18-1.68-.84-1.68-.72,0-.9,.6-1.32,1.62l-11.04,29.94c-1.8,4.86-3.96,8.04-9.24,8.04-4.92,0-6.42-2.82-7.14-7.98L.69,51.82H7.89l5.1,37.32Z"/><path class="cls-1" d="M109.63,96.82h-26.64c-7.49,0-11.88-2.66-11.88-8.42,0-5.4,3.67-8.86,11.52-14.19l20.16-13.75h-27.43l1.01-6.84h22.97c11.88,0,15.41,6.98,14.19,15.62l-3.89,27.58Zm-6.91-7.2l3.31-23.55-21.46,14.69c-3.46,2.38-5.11,3.82-5.11,5.98,0,2.02,1.87,2.88,4.18,2.88h19.08Z"/><path class="cls-1" d="M127.08,51.82h6.9l-5.46,39h26.76l-.84,6h-33.66l6.3-45Z"/><path class="cls-1" d="M167.34,51.82h6.9l-5.46,39h26.76l-.84,6h-33.66l6.3-45Z"/><path class="cls-1" d="M207.6,51.82h36.06l-.84,6h-29.16l-1.86,13.14h29.22l-.84,6h-29.22l-1.92,13.86h29.16l-.84,6h-36.06l6.3-45Z"/><path class="cls-1" d="M265.74,57.82h-18l.84-6h42.9l-.84,6h-18l-5.46,39h-6.9l5.46-39Z"/></g><g><path class="cls-2" d="M6.9,7.98C7.86,2.7,10.02,0,14.64,0c5.04,0,7.14,3.6,8.28,8.46l7.32,30.9c.24,1.08,.42,1.68,1.08,1.68,.72,0,.84-.6,1.08-1.62l7.44-30.96c1.14-4.86,3.6-8.46,8.34-8.46,4.98,0,7.14,2.64,8.1,7.98l6.78,37.8h-7.32L49.5,7.68c-.18-1.2-.54-1.62-1.2-1.62-.72,0-1.2,.42-1.5,1.68l-7.32,30.84c-1.2,5.16-3.18,7.98-8.16,7.98s-6.96-3.36-7.98-7.74L16.08,7.8c-.3-1.38-.66-1.74-1.38-1.74-.66,0-1.14,.42-1.32,1.62L7.02,45.78H0L6.9,7.98Z"/><path class="cls-2" d="M71.76,.78h6.9V45.78h-6.9V.78Z"/></g><path class="cls-1" d="M281.1,125.85c0-13.13,10.54-23.76,23.54-23.76s23.54,10.64,23.54,23.76-10.54,23.76-23.54,23.76-23.54-10.64-23.54-23.76Zm34.19-4.1c1-1.01,1-2.66,0-3.68-1-1.01-2.64-1.01-3.64,0l-9.95,10.04-4.06-4.1c-1-1.01-2.64-1.01-3.64,0-1,1.01-1,2.66,0,3.68l5.88,5.94c1,1.01,2.64,1.01,3.64,0l11.77-11.88Z"/><g><path class="cls-2" d="M10.29,111.04c.96-5.28,3.12-7.98,7.74-7.98,5.04,0,7.14,3.6,8.28,8.46l7.32,30.9c.24,1.08,.42,1.68,1.08,1.68,.72,0,.84-.6,1.08-1.62l7.44-30.96c1.14-4.86,3.6-8.46,8.34-8.46,4.98,0,7.14,2.64,8.1,7.98l6.78,37.8h-7.32l-6.24-38.1c-.18-1.2-.54-1.62-1.2-1.62-.72,0-1.2,.42-1.5,1.68l-7.32,30.84c-1.2,5.16-3.18,7.98-8.16,7.98s-6.96-3.36-7.98-7.74l-7.26-31.02c-.3-1.38-.66-1.74-1.38-1.74-.66,0-1.14,.42-1.32,1.62l-6.36,38.1H3.39l6.9-37.8Z"/><path class="cls-2" d="M74.55,103.84h36.06v6h-29.16v13.14h29.16v6h-29.16v13.86h29.16v6h-36.06v-45Z"/><path class="cls-2" d="M125.73,116.62v26.22h14.1c8.4,0,12.9-3.18,12.9-11.28v-10.5c0-8.1-4.5-11.22-12.6-11.22h-35.7v-6h34.8c13.5,0,21,6.9,21,18.9v7.2c0,12-7.14,18.9-21.3,18.9h-20.1v-32.22h6.9Z"/><path class="cls-2" d="M168.33,103.84h6.9v45h-6.9v-45Z"/><path class="cls-2" d="M224.18,148.84h-19.86c-14.16,0-19.8-7.68-19.8-19.68v-5.64c0-12,5.64-19.68,19.8-19.68h19.56v6h-20.46c-8.4,0-11.4,3.9-11.4,12v9c0,8.1,3,12,11.4,12h20.76v6Z"/><path class="cls-2" d="M253.88,149.56h-6c-13.86,0-19.8-7.74-19.8-19.62v-7.2c0-12,5.94-19.68,19.8-19.68h6c13.8,0,19.8,7.68,19.8,19.68v7.2c0,11.88-6,19.62-19.8,19.62Zm-6.9-6h7.8c8.28,0,11.4-3.96,11.4-12v-10.5c0-8.1-3.12-12-11.4-12h-7.8c-8.22,0-11.4,3.9-11.4,12v10.5c0,8.04,3.18,12,11.4,12Z"/></g></g></g></svg>